<?xml version="1.0" encoding="UTF-8" standalone="no"?>
<svg
   xmlns:dc="http://purl.org/dc/elements/1.1/"
   xmlns:cc="http://creativecommons.org/ns#"
   xmlns:rdf="http://www.w3.org/1999/02/22-rdf-syntax-ns#"
   xmlns:svg="http://www.w3.org/2000/svg"
   xmlns="http://www.w3.org/2000/svg"
   xmlns:sodipodi="http://sodipodi.sourceforge.net/DTD/sodipodi-0.dtd"
   xmlns:inkscape="http://www.inkscape.org/namespaces/inkscape"
   width="200mm"
   height="200mm"
   viewBox="0 0 708.66142 708.66141"
   id="svg2"
   version="1.1"
   inkscape:version="0.91 r13725"
   sodipodi:docname="cos_tuo.svg">
  <sodipodi:namedview
     pagecolor="#ffffff"
     bordercolor="#666666"
     borderopacity="1"
     objecttolerance="10"
     gridtolerance="10"
     guidetolerance="10"
     inkscape:pageopacity="0"
     inkscape:pageshadow="2"
     inkscape:window-width="1280"
     inkscape:window-height="752"
     id="namedview4163"
     showgrid="false"
     inkscape:zoom="0.52496789"
     inkscape:cx="568.22886"
     inkscape:cy="331.83905"
     inkscape:window-x="0"
     inkscape:window-y="22"
     inkscape:window-maximized="1"
     inkscape:current-layer="svg2" />
  <defs
     id="defs4" />
  <metadata
     id="metadata7">
    <rdf:RDF>
      <cc:Work
         rdf:about="">
        <dc:format>image/svg+xml</dc:format>
        <dc:type
           rdf:resource="http://purl.org/dc/dcmitype/StillImage" />
        <dc:title></dc:title>
      </cc:Work>
    </rdf:RDF>
  </metadata>
  <flowRoot
     style="font-style:normal;font-weight:normal;font-size:63.95520782px;line-height:125%;font-family:sans-serif;letter-spacing:0px;word-spacing:0px;fill:#000000;fill-opacity:1;stroke:none;stroke-width:1px;stroke-linecap:butt;stroke-linejoin:miter;stroke-opacity:1"
     id="flowRoot4206"
     xml:space="preserve"><flowRegion
       id="flowRegion4208"><rect
         y="169.30612"
         x="214.33789"
         height="457.07693"
         width="468.38275"
         id="rect4210" /></flowRegion><flowPara
       style="font-style:normal;font-variant:normal;font-weight:bold;font-stretch:normal;font-size:95.93281555px;line-height:94.99999881%;font-family:Nevis;-inkscape-font-specification:'Nevis Bold';letter-spacing:20.89644051px"
       id="flowPara4216" /></flowRoot>  <flowRoot
     style="font-style:normal;font-weight:normal;font-size:40px;line-height:125%;font-family:sans-serif;letter-spacing:0px;word-spacing:0px;fill:#000000;fill-opacity:1;stroke:none;stroke-width:1px;stroke-linecap:butt;stroke-linejoin:miter;stroke-opacity:1"
     id="flowRoot4218"
     xml:space="preserve"
     transform="translate(0,-343.70079)"><flowRegion
       id="flowRegion4220"><rect
         y="351.06744"
         x="218.19295"
         height="49.497475"
         width="121.21831"
         id="rect4222" /></flowRegion><flowPara
       id="flowPara4224" /></flowRoot>  <path
     style="font-style:normal;font-weight:normal;font-size:medium;line-height:125%;font-family:sans-serif;letter-spacing:0px;word-spacing:0px;fill:#bbbbbb;fill-opacity:0.6901961;stroke:none;stroke-width:14.04783916;stroke-linecap:butt;stroke-linejoin:miter;stroke-miterlimit:4;stroke-dasharray:none;stroke-opacity:1"
     d="M 127.90039 32.759766 C 76.239169 32.645216 34.557909 74.1434 34.443359 125.80469 L 33.417969 588.00781 C 33.303419 639.66906 74.801665 681.35029 126.46289 681.46484 L 474.23828 682.23633 C 504.78705 660.3908 592.25856 623.27369 630.11719 582.18555 C 658.48945 551.39305 681.13728 518.41896 686.40234 488.09375 L 686.45117 465.79492 L 687.20312 127.25195 C 687.31772 75.590729 645.81946 33.907519 594.1582 33.792969 L 127.90039 32.759766 z M 209.23242 68.087891 L 238.94727 68.087891 L 238.94727 333.40039 L 179.87109 333.40039 L 179.87109 127.16406 L 150.50977 127.16406 L 150.50977 97.449219 L 209.23242 68.087891 z M 462.69531 68.087891 L 521.77148 68.087891 C 537.80815 68.087891 551.60432 73.983724 563.16016 85.775391 C 574.71599 97.331222 580.49414 111.1274 580.49414 127.16406 L 580.49414 274.32422 C 580.49414 290.36089 574.71599 304.27474 563.16016 316.06641 C 551.60432 327.62224 537.80815 333.40039 521.77148 333.40039 L 462.69531 333.40039 C 446.65865 333.40039 432.7448 327.62224 420.95312 316.06641 C 409.39729 304.51057 403.61914 290.59672 403.61914 274.32422 L 403.61914 127.16406 C 403.61914 110.89156 409.39732 96.977706 420.95312 85.421875 C 432.7448 73.866042 446.65865 68.087891 462.69531 68.087891 z M 492.05664 97.449219 C 484.03831 97.449219 477.08138 100.39714 471.18555 106.29297 C 465.52555 111.95297 462.69531 118.9099 462.69531 127.16406 L 462.69531 227.27539 L 521.41797 121.85742 C 517.17297 105.58492 507.38581 97.449219 492.05664 97.449219 z M 521.77148 174.21289 L 463.40234 279.27734 C 464.81734 287.29568 467.8849 293.42687 472.60156 297.67188 C 477.55406 301.91688 484.03831 304.03906 492.05664 304.03906 C 500.31081 304.03906 507.26773 301.09115 512.92773 295.19531 C 518.82357 289.29948 521.77148 282.34255 521.77148 274.32422 L 521.77148 174.21289 z M 205.15625 377.18555 L 264.42188 377.18555 C 280.50993 377.18555 294.3505 383.10024 305.94336 394.92969 C 317.53622 406.52255 323.33203 420.36312 323.33203 436.45117 L 323.33203 584.08398 C 323.33203 600.17204 317.53622 614.12953 305.94336 625.95898 C 294.3505 637.55185 280.50993 643.34766 264.42188 643.34766 L 205.15625 643.34766 C 189.0682 643.34766 175.10875 637.55185 163.2793 625.95898 C 151.68644 614.36612 145.89062 600.40863 145.89062 584.08398 L 145.89062 436.45117 C 145.89062 420.12653 151.68644 406.16903 163.2793 394.57617 C 175.10875 382.98331 189.0682 377.18555 205.15625 377.18555 z M 511.55664 377.18555 L 541.36719 377.18555 L 541.36719 643.34766 L 482.10156 643.34766 L 482.10156 436.45117 L 452.64648 436.45117 L 452.64648 406.64062 L 511.55664 377.18555 z M 234.61133 406.64062 C 226.5673 406.64062 219.58855 409.59895 213.67383 415.51367 C 207.99569 421.19181 205.15625 428.17056 205.15625 436.45117 L 205.15625 536.88281 L 264.06641 431.12891 C 259.8078 414.80427 249.98961 406.64062 234.61133 406.64062 z M 264.42188 483.65039 L 205.86523 589.05078 C 207.28477 597.09481 210.36197 603.24726 215.09375 607.50586 C 220.06212 611.76446 226.5673 613.89258 234.61133 613.89258 C 242.89194 613.89258 249.87069 610.93621 255.54883 605.02148 C 261.46355 599.10676 264.42188 592.12801 264.42188 584.08398 L 264.42188 483.65039 z "
     id="path4215" />
  <path
     style="font-style:normal;font-weight:normal;font-size:medium;line-height:125%;font-family:sans-serif;letter-spacing:0px;word-spacing:0px;fill:none;fill-opacity:0.69019608;stroke:#444444;stroke-width:14.04783916;stroke-linecap:butt;stroke-linejoin:miter;stroke-miterlimit:4;stroke-dasharray:none;stroke-opacity:1"
     d="M 127.90039,32.759766 C 76.239165,32.645216 34.557909,74.143408 34.443359,125.80469 l -1.02539,462.20312 c -0.11455,51.66125 41.383692,93.34248 93.044921,93.45703 l 347.77539,0.77149 c 30.54877,-21.84553 118.02028,-58.96264 155.87891,-100.05078 28.37226,-30.7925 51.02009,-63.76659 56.28515,-94.0918 l 0.0488,-22.29883 0.75195,-338.54297 C 687.31768,75.590717 645.81946,33.907519 594.1582,33.792969 Z"
     id="rect4136"
     inkscape:connector-curvature="0"
     sodipodi:nodetypes="sssscsccsss" />
  <g
     transform="matrix(8.8720873,0,0,8.8720873,-539.10273,-555.40047)"
     style="font-style:normal;font-weight:normal;font-size:40px;line-height:125%;font-family:sans-serif;letter-spacing:-0.38998714px;word-spacing:0px;fill:#f9f9f9;fill-opacity:1;stroke:none;stroke-width:1px;stroke-linecap:butt;stroke-linejoin:miter;stroke-opacity:1"
     id="flowRoot4151" />
  <flowRoot
     xml:space="preserve"
     id="flowRoot4161"
     style="fill:black;stroke:none;stroke-opacity:1;stroke-width:1px;stroke-linejoin:miter;stroke-linecap:butt;fill-opacity:1;font-family:sans-serif;font-style:normal;font-weight:normal;font-size:40px;line-height:125%;letter-spacing:0px;word-spacing:0px"><flowRegion
       id="flowRegion4163"><rect
         id="rect4165"
         width="114.2927"
         height="53.336594"
         x="161.91466"
         y="131.48326" /></flowRegion><flowPara
       id="flowPara4167"></flowPara></flowRoot>  <g
     style="font-style:normal;font-weight:normal;font-size:40px;line-height:125%;font-family:sans-serif;letter-spacing:0px;word-spacing:0px;fill:#f9f9f9;fill-opacity:1;stroke:none;stroke-width:1px;stroke-linecap:butt;stroke-linejoin:miter;stroke-opacity:1"
     id="text4201"
     transform="translate(13.334148,1.9048784)" />
  <path
     inkscape:connector-curvature="0"
     style="font-style:normal;font-weight:normal;font-size:medium;line-height:125%;font-family:sans-serif;letter-spacing:0px;word-spacing:0px;fill:#d2d2d2;fill-opacity:1;fill-rule:evenodd;stroke:#444444;stroke-width:14.04783916;stroke-linecap:butt;stroke-linejoin:round;stroke-miterlimit:4;stroke-dasharray:none;stroke-opacity:1"
     d="m 465.08238,682.00684 c 77.33103,6.6757 223.36551,-98.74496 221.40058,-201.04159 -8.41256,41.11594 -42.7199,43.68878 -70.71886,43.41365 -70.09452,-0.68875 -84.1835,13.60641 -86.17536,84.67046 -1.06473,37.98609 -18.24665,57.39325 -64.50636,72.95748 z"
     id="path4203" />
</svg>
